<svg xmlns="http://www.w3.org/2000/svg" version="1.1"
    xmlns:xlink="http://www.w3.org/1999/xlink" width="512" height="512" x="0" y="0" viewBox="0 0 60 60" xml:space="preserve">
    <g>
        <path fill="#f5f5f5" d="M41 49v10H6a5 5 0 0 1 0-10z"></path>
        <path fill="#cfd8dc" d="M38 49h3v10h-3z"></path>
        <path fill="#ff9801" d="M45 46v10a3 3 0 0 1-3 3h-1V49h1a3 3 0 0 0 3-3z"></path>
        <path fill="#ffdf00" d="M45 41.57V46a3 3 0 0 1-3 3H7V1h35a2.988 2.988 0 0 1 2.88 2.18A2.2 2.2 0 0 0 44 3c-1.89 0-3.28 2.44-4.92 3.12-1.7.7-4.4-.01-5.69 1.27s-.57 3.99-1.27 5.69C31.44 14.72 29 16.11 29 18s2.44 3.28 3.12 4.92c.7 1.7-.01 4.4 1.27 5.69.83.83 2.25.82 3.61.91v13.76a1.006 1.006 0 0 0 1.5.87l5-2.87a1.044 1.044 0 0 1 1 0z"></path>
        <path fill="#fec108" d="M41.88 3.18A2.2 2.2 0 0 0 41 3c-1.89 0-3.28 2.44-4.92 3.12-1.7.7-4.4-.01-5.69 1.27s-.57 3.99-1.27 5.69C28.44 14.72 26 16.11 26 18s2.44 3.28 3.12 4.92c.7 1.7-.01 4.4 1.27 5.69.83.83 2.25.82 3.61.91v13.76a1.006 1.006 0 0 0 1.5.87l1.5-.862V29.52c-1.36-.09-2.78-.08-3.61-.91-1.28-1.29-.57-3.99-1.27-5.69C31.44 21.28 29 19.89 29 18s2.44-3.28 3.12-4.92c.7-1.7-.01-4.4 1.27-5.69s3.99-.57 5.69-1.27C40.72 5.44 42.11 3 44 3a2.2 2.2 0 0 1 .88.18A2.988 2.988 0 0 0 42 1h-3a2.988 2.988 0 0 1 2.88 2.18zM44.5 41.28a1.044 1.044 0 0 0-1 0l-1.5.861V46a3 3 0 0 1-3 3h3a3 3 0 0 0 3-3v-4.43z"></path>
        <path fill="#ff9801" d="M7 1v48H6a5 5 0 0 0-5 5V6a5 5 0 0 1 5-5z"></path>
        <path fill="#f44335" d="M59 18c0 1.89-2.44 3.28-3.12 4.92-.7 1.7.01 4.4-1.27 5.69-.83.83-2.25.82-3.61.91a6.422 6.422 0 0 0-2.08.36C47.28 30.56 45.89 33 44 33s-3.28-2.44-4.92-3.12a6.422 6.422 0 0 0-2.08-.36c-1.36-.09-2.78-.08-3.61-.91-1.28-1.29-.57-3.99-1.27-5.69C31.44 21.28 29 19.89 29 18s2.44-3.28 3.12-4.92c.7-1.7-.01-4.4 1.27-5.69s3.99-.57 5.69-1.27C40.72 5.44 42.11 3 44 3a2.2 2.2 0 0 1 .88.18c1.47.57 2.67 2.37 4.04 2.94 1.7.7 4.4-.01 5.69 1.27s.57 3.99 1.27 5.69C56.56 14.72 59 16.11 59 18z"></path>
        <path fill="#c81e1e" d="M55.88 13.08c-.7-1.7.01-4.4-1.27-5.69s-3.99-.57-5.69-1.27c-1.37-.57-2.57-2.37-4.04-2.94A2.2 2.2 0 0 0 44 3a2.821 2.821 0 0 0-1.505.5c1.2.747 2.251 2.134 3.425 2.622 1.7.7 4.4-.01 5.69 1.27s.57 3.99 1.27 5.69C53.56 14.72 56 16.11 56 18s-2.44 3.28-3.12 4.92c-.7 1.7.01 4.4-1.27 5.69-.83.83-2.25.82-3.61.91a6.422 6.422 0 0 0-2.08.36c-1.176.488-2.224 1.877-3.42 2.626A2.828 2.828 0 0 0 44 33c1.89 0 3.28-2.44 4.92-3.12a6.422 6.422 0 0 1 2.08-.36c1.36-.09 2.78-.08 3.61-.91 1.28-1.29.57-3.99 1.27-5.69C56.56 21.28 59 19.89 59 18s-2.44-3.28-3.12-4.92z"></path>
        <circle cx="44" cy="18" r="9" fill="#ffeb3a"></circle>
        <path fill="#fdd834" d="M44 9a9.045 9.045 0 0 0-1.5.135 8.989 8.989 0 0 1 0 17.73A9 9 0 1 0 44 9z"></path>
        <path fill="#f44335" d="M51 29.52v13.76a1.006 1.006 0 0 1-1.5.87L45 41.57l-.5-.29a1.044 1.044 0 0 0-1 0l-5 2.87a1.006 1.006 0 0 1-1.5-.87V29.52a6.422 6.422 0 0 1 2.08.36C40.72 30.56 42.11 33 44 33s3.28-2.44 4.92-3.12a6.422 6.422 0 0 1 2.08-.36z"></path>
        <path fill="#c81e1e" d="M48.92 29.88a4.187 4.187 0 0 0-.92.556v12.853l1.5.861a1.006 1.006 0 0 0 1.5-.87V29.52a6.422 6.422 0 0 0-2.08.36z"></path>
        <path d="M10 53H6a1 1 0 0 0 0 2h4a1 1 0 0 0 0-2zM14 10h14a1 1 0 0 0 0-2H14a1 1 0 0 0 0 2zM17 14h-3a1 1 0 0 0 0 2h3a1 1 0 0 0 0-2zM25 14h-4a1 1 0 0 0 0 2h4a1 1 0 0 0 0-2z" fill="#000000"></path>
        <path d="M56.806 12.7a7.067 7.067 0 0 1-.316-2.137c-.073-1.337-.156-2.852-1.177-3.872s-2.535-1.1-3.872-1.177a7.055 7.055 0 0 1-2.136-.316 6.726 6.726 0 0 1-1.643-1.239 9.911 9.911 0 0 0-1.993-1.514A3.993 3.993 0 0 0 42 0H6a6.006 6.006 0 0 0-6 6v48a6.006 6.006 0 0 0 6 6h36a4 4 0 0 0 4-4V43.294l3.007 1.727a1.988 1.988 0 0 0 2-.014 1.98 1.98 0 0 0 1-1.727V30.457a4.946 4.946 0 0 0 3.313-1.144c1.021-1.019 1.1-2.535 1.177-3.872a7.055 7.055 0 0 1 .316-2.136 6.726 6.726 0 0 1 1.239-1.643C58.961 20.651 60 19.506 60 18s-1.039-2.651-1.955-3.662a6.742 6.742 0 0 1-1.239-1.638zM42.845 2.214a8.016 8.016 0 0 0-2.507 1.741A6.742 6.742 0 0 1 38.7 5.194a7.067 7.067 0 0 1-2.137.316c-1.337.073-2.852.156-3.872 1.177s-1.1 2.535-1.177 3.872a7.055 7.055 0 0 1-.316 2.136 6.726 6.726 0 0 1-1.239 1.643C29.039 15.349 28 16.494 28 18s1.039 2.651 1.955 3.662a6.742 6.742 0 0 1 1.239 1.638 7.067 7.067 0 0 1 .316 2.137c.073 1.337.156 2.852 1.177 3.872A4.944 4.944 0 0 0 36 30.457V43.28a2.007 2.007 0 0 0 3 1.738l5-2.869V46a2 2 0 0 1-2 2H8V2h34a1.954 1.954 0 0 1 .845.214zM6 2v46a5.965 5.965 0 0 0-4 1.541V6a4 4 0 0 1 4-4zM2 54a4 4 0 0 1 4-4h34v3H14a1 1 0 0 0 0 2h26v3H6a4 4 0 0 1-4-4zm40 4v-8a3.959 3.959 0 0 0 2-.556V56a2 2 0 0 1-2 2zm2.981-17.6a2.066 2.066 0 0 0-1.979.01L38 43.28V30.625a3.262 3.262 0 0 1 .7.181 6.726 6.726 0 0 1 1.643 1.239C41.349 32.961 42.494 34 44 34s2.651-1.039 3.662-1.955a6.742 6.742 0 0 1 1.638-1.239 3.271 3.271 0 0 1 .7-.181v12.658zm11.581-20.081a8.175 8.175 0 0 0-1.6 2.219 8.562 8.562 0 0 0-.465 2.794A4.271 4.271 0 0 1 53.9 27.9a4.271 4.271 0 0 1-2.567.594 8.572 8.572 0 0 0-2.8.465 8.186 8.186 0 0 0-2.218 1.6C45.5 31.3 44.734 32 44 32s-1.5-.7-2.319-1.438a8.175 8.175 0 0 0-2.219-1.6 8.562 8.562 0 0 0-2.794-.465A4.271 4.271 0 0 1 34.1 27.9a4.271 4.271 0 0 1-.594-2.567 8.572 8.572 0 0 0-.465-2.8 8.186 8.186 0 0 0-1.6-2.218C30.7 19.5 30 18.734 30 18s.7-1.5 1.438-2.319a8.175 8.175 0 0 0 1.6-2.219 8.562 8.562 0 0 0 .465-2.794A4.271 4.271 0 0 1 34.1 8.1a4.271 4.271 0 0 1 2.567-.594 8.572 8.572 0 0 0 2.8-.465 8.186 8.186 0 0 0 2.218-1.6C42.5 4.7 43.266 4 44 4s1.5.7 2.319 1.438a8.175 8.175 0 0 0 2.219 1.6 8.562 8.562 0 0 0 2.794.465A4.271 4.271 0 0 1 53.9 8.1a4.271 4.271 0 0 1 .594 2.567 8.572 8.572 0 0 0 .465 2.8 8.186 8.186 0 0 0 1.6 2.218C57.3 16.5 58 17.266 58 18s-.7 1.5-1.438 2.319z" fill="#000000"></path>
        <path d="M44 8a10 10 0 1 0 10 10A10.011 10.011 0 0 0 44 8zm0 18a8 8 0 1 1 8-8 8.009 8.009 0 0 1-8 8z" fill="#000000"></path>
    </g>
</svg>